<?xml version="1.0" standalone="no"?>
<!DOCTYPE svg PUBLIC "-//W3C//DTD SVG 20010904//EN"
 "http://www.w3.org/TR/2001/REC-SVG-20010904/DTD/svg10.dtd">
<svg version="1.0" xmlns="http://www.w3.org/2000/svg"
 width="1024.000000pt" height="1024.000000pt" viewBox="0 0 1024.000000 1024.000000"
 preserveAspectRatio="xMidYMid meet">
<metadata>
Created by potrace 1.14, written by Peter Selinger 2001-2017
</metadata>
<g transform="translate(0.000000,1024.000000) scale(0.100000,-0.100000)"
fill="#000000" stroke="none">
<path d="M4921 9745 c-352 -77 -623 -328 -728 -675 -35 -116 -44 -339 -18
-457 65 -302 245 -538 510 -670 99 -50 157 -69 265 -88 422 -74 838 135 1033
520 105 209 126 500 51 730 -45 137 -156 309 -257 401 -129 117 -284 198 -449
235 -105 23 -309 25 -407 4z"/>
<path d="M2521 8465 c-352 -77 -623 -328 -728 -675 -35 -116 -44 -339 -18
-457 65 -302 245 -538 510 -670 99 -50 157 -69 265 -88 422 -74 838 135 1033
520 105 209 126 500 51 730 -45 137 -156 309 -257 401 -129 117 -284 198 -449
235 -105 23 -309 25 -407 4z"/>
<path d="M7321 8305 c-352 -77 -623 -328 -728 -675 -35 -116 -44 -339 -18
-457 65 -302 245 -538 510 -670 99 -50 157 -69 265 -88 422 -74 838 135 1033
520 105 209 126 500 51 730 -45 137 -156 309 -257 401 -129 117 -284 198 -449
235 -105 23 -309 25 -407 4z"/>
<path d="M1241 6065 c-352 -77 -623 -328 -728 -675 -35 -116 -44 -339 -18
-457 65 -302 245 -538 510 -670 99 -50 157 -69 265 -88 422 -74 838 135 1033
520 105 209 126 500 51 730 -45 137 -156 309 -257 401 -129 117 -284 198 -449
235 -105 23 -309 25 -407 4z"/>
<path d="M8601 6065 c-352 -77 -623 -328 -728 -675 -35 -116 -44 -339 -18
-457 65 -302 245 -538 510 -670 99 -50 157 -69 265 -88 422 -74 838 135 1033
520 105 209 126 500 51 730 -45 137 -156 309 -257 401 -129 117 -284 198 -449
235 -105 23 -309 25 -407 4z"/>
<path d="M2521 3665 c-352 -77 -623 -328 -728 -675 -35 -116 -44 -339 -18
-457 65 -302 245 -538 510 -670 99 -50 157 -69 265 -88 422 -74 838 135 1033
520 105 209 126 500 51 730 -45 137 -156 309 -257 401 -129 117 -284 198 -449
235 -105 23 -309 25 -407 4z"/>
<path d="M7321 3665 c-352 -77 -623 -328 -728 -675 -35 -116 -44 -339 -18
-457 65 -302 245 -538 510 -670 99 -50 157 -69 265 -88 422 -74 838 135 1033
520 105 209 126 500 51 730 -45 137 -156 309 -257 401 -129 117 -284 198 -449
235 -105 23 -309 25 -407 4z"/>
<path d="M4921 2385 c-352 -77 -623 -328 -728 -675 -35 -116 -44 -339 -18
-457 65 -302 245 -538 510 -670 99 -50 157 -69 265 -88 422 -74 838 135 1033
520 105 209 126 500 51 730 -45 137 -156 309 -257 401 -129 117 -284 198 -449
235 -105 23 -309 25 -407 4z"/>
</g>
</svg>
